<?xml version="1.0" encoding="UTF-8"?>
<svg id="Layer_1" xmlns="http://www.w3.org/2000/svg" viewBox="0 0 382 382">
  <defs>
    <style>
      .cls-1 {
        fill: #8bd5ca;
      }
    </style>
  </defs>
  <path class="cls-1" d="M365.31,211.89c7.67-17.49,12.03-36.8,12.29-57.05l-32.41-.42h0c-.21,15.86-3.6,30.84-9.57,44.45-5.97,13.61-14.51,25.85-25.02,36.09-10.51,10.24-22.96,18.46-36.72,24.08-13.77,5.61-28.83,8.62-44.69,8.41-15.86-.21-30.84-3.6-44.45-9.57-13.61-5.97-25.85-14.51-36.09-25.02-10.24-10.51-18.46-22.96-24.08-36.72-5.61-13.77-8.62-28.83-8.41-44.68.21-15.86,3.6-30.84,9.57-44.45,5.97-13.61,14.51-25.85,25.02-36.09,10.51-10.24,22.96-18.46,36.72-24.08,13.77-5.61,28.83-8.62,44.68-8.41l.42-32.41c-20.24-.26-39.66,3.6-57.35,10.81-17.69,7.21-33.65,17.76-47.11,30.88-13.46,13.11-24.42,28.79-32.09,46.29-7.67,17.49-12.03,36.8-12.29,57.05-.26,20.24,3.6,39.66,10.81,57.34,5.91,14.49,14.06,27.82,24.02,39.56l-24.59,23.96-4.2-4.31L3.15,352.01l4.2,4.31,14.22,14.59,4.2,4.31,86.64-84.42-4.2-4.31,24.59-23.96c11.48,10.26,24.59,18.76,38.92,25.04,17.49,7.67,36.8,12.03,57.05,12.29,20.24.26,39.66-3.6,57.35-10.81,17.69-7.21,33.65-17.76,47.11-30.88,13.46-13.11,24.42-28.79,32.09-46.29Z"/>
  <path class="cls-1" d="M247.58,79.55c.73,6.27,2.38,12.49,4.95,18.43,2.57,5.94,6.08,11.59,10.49,16.71,5.88,6.84,12.93,12.21,20.58,16,11.48,5.68,24.29,7.84,36.84,6.37,6.27-.73,12.49-2.38,18.43-4.95,5.94-2.57,11.59-6.08,16.71-10.49,6.84-5.88,12.21-12.93,16-20.58,5.68-11.48,7.84-24.29,6.37-36.84-.73-6.27-2.38-12.49-4.95-18.43-2.57-5.94-6.08-11.59-10.49-16.71-5.88-6.84-12.93-12.21-20.58-16-11.48-5.68-24.29-7.84-36.84-6.37-6.27.73-12.49,2.38-18.43,4.95-5.94,2.57-11.59,6.08-16.71,10.49-6.84,5.88-12.21,12.93-16,20.58-5.68,11.48-7.84,24.29-6.37,36.84ZM302.59,40.24c6.14-1.97,12.77-2.1,18.95-.41,3.09.84,6.06,2.13,8.82,3.85,2.76,1.73,5.31,3.89,7.58,6.52,3.02,3.51,5.14,7.4,6.46,11.49,1.97,6.14,2.1,12.77.41,18.95-.84,3.09-2.13,6.06-3.85,8.82-1.73,2.76-3.89,5.31-6.52,7.58-3.51,3.02-7.4,5.14-11.49,6.46-6.14,1.97-12.77,2.1-18.95.41-3.09-.84-6.06-2.13-8.82-3.85-2.76-1.73-5.31-3.89-7.58-6.52-3.02-3.51-5.14-7.4-6.46-11.49-1.97-6.14-2.1-12.77-.41-18.95.84-3.09,2.13-6.06,3.85-8.82,1.73-2.76,3.89-5.31,6.52-7.58,3.51-3.02,7.4-5.14,11.49-6.46Z"/>
</svg>