<?xml version="1.0" encoding="UTF-8"?>
<svg id="Layer_1" xmlns="http://www.w3.org/2000/svg" viewBox="0 0 1590.8 412.96">
  <defs>
    <style>
      .cls-1 {
        fill: #8bd5ca;
      }
    </style>
  </defs>
  <path class="cls-1" d="M577.74,8.35l-58.04,137.09h-36.48L424.89,8.35h36.76l18.79,45.05,21.01,57.49,20.73-56.94,18.8-45.6h36.76Z"/>
  <path class="cls-1" d="M622.79,88.78c2.21,16.86,16.86,29.02,40.63,29.02,12.44,0,28.75-4.7,36.48-12.71l21.56,21.28c-14.37,14.93-37.87,22.11-58.6,22.11-46.99,0-74.9-29.02-74.9-72.69s28.19-71.31,72.41-71.31,74.07,28.19,68.82,84.3h-106.41ZM696.87,60.86c-2.21-17.69-16.03-26.53-35.38-26.53-18.24,0-33.17,8.85-38.14,26.53h73.52Z"/>
  <path class="cls-1" d="M786.42,8.62l2.49,15.75c10.5-16.86,24.6-19.35,38.42-19.35s27.64,5.53,35.1,12.99l-15.2,29.3c-6.91-5.81-13.27-8.84-24.32-8.84-17.69,0-34,9.4-34,34.55v71.86h-33.72V8.62h31.23Z"/>
  <path class="cls-1" d="M565.12,297.91c-15.7,15.48-35.97,22.67-57.99,22.67-56.69,0-80.67-39.02-80.89-78.7-.22-39.9,25.73-80.45,80.89-80.45,20.71,0,40.33,7.85,56.03,23.33l-19.19,18.53c-10.03-9.81-23.55-14.39-36.85-14.39-36.85,0-52.76,27.47-52.54,52.98.22,25.29,14.82,51.67,52.54,51.67,13.3,0,28.34-5.45,38.37-15.48l19.62,19.84Z"/>
  <path class="cls-1" d="M683.94,263.46c0,30.96-21.15,56.03-56.03,56.03s-55.81-25.07-55.81-56.03,21.37-56.03,55.6-56.03,56.25,25.29,56.25,56.03ZM598.7,263.46c0,16.35,9.81,31.61,29.21,31.61s29.21-15.26,29.21-31.61-11.34-31.83-29.21-31.83c-19.19,0-29.21,15.7-29.21,31.83Z"/>
  <path class="cls-1" d="M773.77,317.09v-57.56c0-14.17-7.41-27.03-22.02-27.03s-22.89,12.86-22.89,27.03v57.56h-26.6v-107.7h24.64l1.96,13.08c5.67-10.9,18.1-14.83,28.34-14.83,12.86,0,25.73,5.23,31.83,20.06,9.59-15.26,22.02-19.62,35.97-19.62,30.52,0,45.57,18.75,45.57,51.02v57.99h-26.6v-57.99c0-14.17-5.89-26.16-20.28-26.16s-23.33,12.43-23.33,26.6v57.56h-26.6Z"/>
  <path class="cls-1" d="M895.43,362.01v-152.39h24.85l1.74,14.82c8.28-11.99,22.67-17.22,34.88-17.22,33.14,0,55.16,24.64,55.16,56.25s-19.84,56.25-54.29,56.25c-11.34,0-28.12-3.49-35.75-15.26v57.56h-26.6ZM985.47,263.46c0-16.79-11.34-30.52-30.52-30.52s-30.52,13.74-30.52,30.52,12.43,30.52,30.52,30.52,30.52-13.74,30.52-30.52Z"/>
  <path class="cls-1" d="M1116.94,209.61h25.51v107.48h-25.07l-1.31-15.7c-6.1,12.65-22.89,18.75-34.88,18.97-31.83.22-55.38-19.4-55.38-57.12s24.64-56.47,56.03-56.25c14.39,0,28.12,6.76,34.23,17.44l.87-14.82ZM1052.41,263.24c0,20.49,14.17,32.7,31.83,32.7,41.86,0,41.86-65.19,0-65.19-17.66,0-31.83,11.99-31.83,32.48Z"/>
  <path class="cls-1" d="M1244.05,317.09v-56.25c0-16.35-8.94-28.78-25.94-28.78s-27.47,13.74-27.47,30.09v54.94h-26.38v-107.7h23.76l1.74,14.61c10.9-10.68,21.8-16.13,35.32-16.13,25.29,0,45.57,18.97,45.57,52.76v56.47h-26.6Z"/>
  <path class="cls-1" d="M1322.54,179.31c0,20.71-31.39,20.71-31.39,0s31.39-20.71,31.39,0ZM1293.54,209.17v107.92h26.6v-107.92h-26.6Z"/>
  <path class="cls-1" d="M1453.35,263.46c0,30.96-21.15,56.03-56.03,56.03s-55.81-25.07-55.81-56.03,21.37-56.03,55.59-56.03,56.25,25.29,56.25,56.03ZM1368.1,263.46c0,16.35,9.81,31.61,29.21,31.61s29.21-15.26,29.21-31.61-11.34-31.83-29.21-31.83c-19.19,0-29.21,15.7-29.21,31.83Z"/>
  <path class="cls-1" d="M1550.8,317.09v-56.25c0-16.35-8.94-28.78-25.94-28.78s-27.47,13.74-27.47,30.09v54.94h-26.38v-107.7h23.76l1.74,14.61c10.9-10.68,21.8-16.13,35.32-16.13,25.29,0,45.57,18.97,45.57,52.76v56.47h-26.6Z"/>
  <path class="cls-1" d="M411.45,230.13c8.41-19.18,13.2-40.37,13.49-62.57l-35.55-.46h0c-.23,17.39-3.95,33.82-10.5,48.76-6.54,14.93-15.92,28.35-27.44,39.58-11.52,11.23-25.18,20.25-40.28,26.41-15.1,6.15-31.62,9.45-49.01,9.23-17.39-.23-33.82-3.95-48.76-10.5-14.93-6.54-28.35-15.92-39.58-27.44-11.23-11.52-20.25-25.18-26.41-40.28-6.15-15.1-9.45-31.62-9.23-49.01.23-17.39,3.95-33.82,10.5-48.76,6.54-14.93,15.92-28.35,27.44-39.58,11.52-11.23,25.18-20.25,40.28-26.41,15.1-6.15,31.62-9.45,49.01-9.23l.46-35.55c-22.2-.29-43.5,3.95-62.9,11.86-19.4,7.91-36.91,19.48-51.67,33.87-14.76,14.38-26.78,31.58-35.19,50.77-8.41,19.18-13.2,40.37-13.49,62.57-.29,22.2,3.95,43.5,11.86,62.9,6.48,15.89,15.42,30.51,26.35,43.39l-26.97,26.28-4.61-4.73L14.21,383.82l4.61,4.73,15.6,16.01,4.61,4.73,95.04-92.6-4.61-4.73,26.97-26.28c12.59,11.26,26.98,20.57,42.7,27.46,19.18,8.41,40.37,13.2,62.57,13.49,22.2.29,43.5-3.95,62.9-11.86,19.4-7.91,36.91-19.48,51.67-33.87,14.76-14.38,26.78-31.58,35.19-50.77Z"/>
  <path class="cls-1" d="M282.32,84.97c.81,6.88,2.61,13.7,5.43,20.21,2.82,6.51,6.67,12.71,11.51,18.33,6.45,7.5,14.19,13.39,22.58,17.55,12.6,6.23,26.64,8.6,40.41,6.99,6.88-.81,13.7-2.61,20.21-5.43,6.51-2.82,12.71-6.67,18.33-11.51,7.5-6.45,13.39-14.19,17.55-22.58,6.23-12.6,8.6-26.64,6.99-40.41-.81-6.88-2.61-13.7-5.43-20.21-2.82-6.51-6.67-12.71-11.51-18.33-6.45-7.5-14.19-13.39-22.58-17.55-12.6-6.23-26.64-8.6-40.41-6.99-6.88.81-13.7,2.61-20.21,5.43-6.51,2.82-12.71,6.67-18.33,11.51-7.5,6.45-13.39,14.19-17.55,22.58-6.23,12.6-8.6,26.64-6.99,40.41ZM342.66,41.85c6.73-2.17,14.01-2.3,20.79-.45,3.39.92,6.65,2.34,9.68,4.23,3.03,1.89,5.82,4.26,8.31,7.15,3.31,3.85,5.64,8.11,7.08,12.61,2.17,6.73,2.3,14.01.45,20.79-.92,3.39-2.34,6.65-4.23,9.68-1.89,3.03-4.26,5.82-7.15,8.31-3.85,3.31-8.11,5.64-12.61,7.08-6.73,2.17-14.01,2.3-20.79.45-3.39-.92-6.65-2.34-9.68-4.23-3.03-1.89-5.82-4.26-8.31-7.15-3.31-3.85-5.64-8.11-7.08-12.61-2.17-6.73-2.3-14.01-.45-20.79.92-3.39,2.34-6.65,4.23-9.68,1.89-3.03,4.26-5.82,7.15-8.31,3.85-3.31,8.11-5.64,12.61-7.08Z"/>
</svg>